<?xml version="1.0" standalone="yes"?>
<svg width="426" height="426">
<path style="fill:#ffffff; stroke:none;" d="M0 0L0 426L426 426L426 0L0 0z"/>
<path style="fill:#000000; stroke:none;" d="M202 70.4283C117.444 82.5359 84.9656 189.6 146 247.961C160.173 261.512 177.237 268.936 196 273.627C203.578 275.521 217.963 276.547 221.254 285.04C224.445 293.278 213.714 303.595 208.83 309C191.319 328.38 167.076 341.709 144 353.247C139.273 355.611 131.144 357.713 127.603 361.649C124.608 364.98 126.5 370.15 131.019 370.33C136.701 370.556 143.804 366.461 149 364.399C163.079 358.813 176.724 352.597 190 345.306C245.561 314.792 309.246 259.756 318.715 193C328.481 124.147 273.763 60.1525 202 70.4283z"/>
</svg>
