<?xml version="1.0" encoding="UTF-8"?>
<svg width="159px" height="56px" viewBox="0 0 159 56" version="1.1" xmlns="http://www.w3.org/2000/svg" xmlns:xlink="http://www.w3.org/1999/xlink">
    <!-- Generator: Sketch 45 (43475) - http://www.bohemiancoding.com/sketch -->
    <title>Page 1</title>
    <desc>Created with Sketch.</desc>
    <defs>
        <polygon id="path-1" points="36.1776757 31.0944212 36.1776757 0.276530973 0.22599918 0.276530973 0.22599918 31.0944212 36.1776757 31.0944212"></polygon>
    </defs>
    <g id="Page-1" stroke="none" stroke-width="1" fill="none" fill-rule="evenodd">
        <g id="Portfolio-3" transform="translate(-103.000000, -65.000000)">
            <g id="Page-1" transform="translate(103.000000, 65.000000)">
                <path d="M55.2620873,31.4378053 C55.2640659,28.7939115 55.2615927,26.1515044 55.2596141,23.5090973 C55.2541732,17.4972743 55.2492268,11.2812743 55.299185,5.17281416 C55.3164973,3.04431858 56.8063409,1.4639292 59.2844671,0.944070796 C59.862202,0.823150442 60.4236138,0.761699115 60.951885,0.761699115 C63.0273776,0.761699115 64.7689909,1.68049558 66.4314624,3.65437168 C67.6729988,5.12672566 68.6484209,6.87461947 69.4660542,8.39653097 C70.4231748,10.1796106 71.5128579,11.803115 72.735598,13.5896637 C74.1547087,15.6641416 75.62724,17.7450619 77.051297,19.7575929 C77.6003429,20.5336637 78.1498835,21.3097345 78.6974455,22.087292 C78.8072547,22.2433982 78.926462,22.3945487 79.0857348,22.5927788 L79.3152459,22.8812035 C79.6921585,23.3609204 80.2659362,23.6379469 80.8698868,23.6379469 C80.9134147,23.6379469 80.9574373,23.6364602 81.0014599,23.6334867 C81.6528955,23.5898761 82.2410177,23.2276106 82.5734131,22.6646372 L82.6936096,22.456 C82.7208146,22.4089204 82.742084,22.3692743 82.7658265,22.3330973 C83.649741,21.0371681 84.541075,19.7422301 85.4329037,18.4477876 C87.5791292,15.3321062 89.7985609,12.1098761 91.9007638,8.87773451 C92.2390948,8.35738053 92.5650599,7.8300885 92.8905304,7.30279646 C93.7289384,5.94640708 94.520356,4.66484956 95.502703,3.54980531 C96.8763072,1.99171681 98.0174324,1.20821239 99.3193143,0.929699115 C99.8040575,0.826123894 100.315017,0.774088496 100.837352,0.774088496 C101.607995,0.774088496 105.491382,0.953982301 106.245207,4.50824779 C106.316435,4.84176991 106.326328,5.24715044 106.326328,5.6 C106.333253,13.7135575 106.332263,21.827115 106.331769,29.9406726 L106.331274,31.4363186 L101.644598,31.4363186 L101.644598,9.62307965 C101.644598,8.70477876 101.014926,7.90640708 100.122108,7.69430088 L99.9697606,7.65861947 C99.8179073,7.62244248 99.6650648,7.60509735 99.5132116,7.60509735 C98.9156913,7.60509735 98.339935,7.87716814 97.9590653,8.36035398 L97.8675577,8.47433628 C97.7468665,8.6220177 97.6276592,8.77168142 97.5218071,8.92778761 L86.2045358,25.595469 C85.1850911,27.0960708 83.9757061,28.0371681 82.5076265,28.4722832 C81.8937833,28.6541593 81.2923059,28.7463363 80.7205067,28.7463363 C79.3459133,28.7463363 78.0756881,28.2314336 76.836625,27.172885 C76.3479246,26.7556106 75.8770312,26.2238584 75.4743975,25.6356106 C72.6693168,21.5381947 69.8830323,17.4293805 67.0957586,13.3210619 L64.1170607,8.93224779 C64.0211013,8.79100885 63.9167331,8.65571681 63.7648799,8.4659115 L63.5536703,8.19730973 C63.172306,7.70718584 62.592098,7.43313274 61.9925991,7.43313274 C61.8095838,7.43313274 61.6250846,7.45840708 61.4440478,7.51143363 C60.6669747,7.7359292 60.1045736,8.41189381 60.0239479,9.21819469 C60.0110874,9.35100885 59.996743,9.46350442 59.9853663,9.56311504 C59.9551935,9.8079292 59.9279885,10.0398584 59.9279885,10.3139115 C59.9245261,16.7038584 59.9245261,23.0938053 59.9245261,29.4847434 L59.9245261,31.435823 L57.2994929,31.4338407 C56.6203577,31.4338407 55.9412225,31.4348319 55.2620873,31.4378053" id="Fill-1" fill="#FFFFFF"></path>
                <g id="Group-5" transform="translate(122.669724, 0.219044)">
                    <mask id="mask-2" fill="white">
                        <use xlink:href="#path-1"></use>
                    </mask>
                    <g id="Clip-4"></g>
                    <path d="M7.38239257,4.33187257 C6.57761983,4.33187257 5.92568961,4.57817345 5.44490343,5.06383717 C4.9660958,5.54702301 4.72669198,6.19275752 4.73262762,6.98270442 C4.75241305,9.62263363 4.75241305,12.3795186 4.73312225,15.1775363 C4.72768126,15.9565805 4.96757971,16.5968637 5.44688197,17.0810407 C5.92816278,17.5662088 6.5716842,17.8120142 7.36013395,17.8120142 C10.8547372,17.807554 14.3419208,17.8070584 17.8291045,17.8065628 L25.3663676,17.8045805 C27.7767288,17.8025982 29.6504099,16.6484035 30.642155,14.5545982 C31.4489063,12.8508106 31.6650622,11.1316602 31.2841925,9.4432354 C30.3275665,5.20606726 27.4690652,4.31650973 25.2402354,4.31650973 C25.1462546,4.31650973 25.0512845,4.31849204 24.9538412,4.32146549 C23.9962259,4.35268673 22.9663938,4.36755398 21.7129863,4.36755398 C20.8636963,4.36755398 20.0139117,4.3611115 19.1646217,4.35417345 C18.3049443,4.34773097 17.445267,4.3412885 16.5855897,4.3412885 L11.9330436,4.3432708 C10.4244039,4.3432708 8.91675339,4.3412885 7.40860828,4.33187257 L7.38239257,4.33187257 Z M0.22599918,31.0944212 C0.2358919,27.7770407 0.234902628,24.4725451 0.23341872,21.1685451 C0.23341872,21.1685451 0.23094554,15.3688283 0.229461632,14.0575363 C0.225009908,10.6896071 0.220558185,7.2072 0.246773892,3.78673982 C0.255677339,2.65137699 0.543555481,1.82376637 1.15245238,1.18249204 C1.54667725,0.767695575 2.05912013,0.522385841 2.76694422,0.40939469 C3.3481415,0.316722124 3.98572728,0.303837168 4.58819391,0.303341593 L7.2384535,0.301854867 L17.86917,0.308297345 C22.2274077,0.308297345 25.5558132,0.298385841 28.6621272,0.276084956 L28.7145586,0.276084956 C30.449247,0.276084956 31.8347224,0.881677876 33.2058533,2.24054513 C34.9266919,3.94482832 35.8516612,5.95289912 36.0346765,8.37973097 C36.2167025,10.8030938 36.2251113,12.787377 36.0608922,14.6254655 C35.93476,16.0403327 35.2759049,17.3764035 33.9868835,18.8309168 C33.1479809,19.7774655 32.1285361,20.6139965 31.2421485,21.3078018 C30.8385255,21.6229876 30.2573282,21.7766159 29.4664053,21.7766159 C25.8219274,21.770669 22.1888261,21.7696779 18.5557248,21.7696779 L7.65839945,21.770669 L4.7296598,21.7676956 L4.74153106,24.6811823 L4.74004716,26.5708106 C4.73806861,28.0783504 4.7365847,29.5863858 4.74301497,31.0944212 C3.97929701,31.0889699 3.21656833,31.0859965 2.45383964,31.0859965 C1.71139104,31.0859965 0.968942426,31.0889699 0.22599918,31.0944212 L0.22599918,31.0944212 Z" id="Fill-3" fill="#FFFFFF" mask="url(#mask-2)"></path>
                </g>
                <path d="M5.84773497,31.2636106 C4.60075766,31.2512212 3.35427499,31.2477522 2.10779231,31.2477522 L0.0689027923,31.2497345 L2.93779149,26.0288496 C6.90872916,18.7993982 11.0142078,11.323646 15.0880298,3.99210619 C16.1094531,2.15451327 17.5221334,1.07465487 19.4057073,0.691575221 C19.6782517,0.636070796 19.9503015,0.608318584 20.2129532,0.608318584 C21.2076661,0.608318584 22.2078201,1.01369912 23.2717821,1.84874336 C24.1265131,2.51925664 24.8096054,3.31515044 25.3012735,4.21214159 C29.1267882,11.1878584 32.9582385,18.1601062 36.7901835,25.132354 L40.1517296,31.2507257 L38.2280903,31.2492389 C36.9494563,31.2492389 35.6713169,31.2517168 34.3926829,31.2621239 C30.7674958,24.6437168 27.141814,18.056531 23.5161323,11.4693451 L22.2755852,9.21497345 C22.1786366,9.03854867 22.0688274,8.8680708 21.9337918,8.66339823 L21.7760029,8.4200708 C21.4124454,7.85015929 20.7832685,7.50573451 20.108585,7.50573451 L20.0972084,7.50573451 C19.4180732,7.50920354 18.7879069,7.86254867 18.4292958,8.43989381 L18.2724962,8.68817699 C18.1522997,8.87649558 18.0573296,9.02913274 17.9707683,9.18573451 L16.1885948,12.4253097 C12.7365303,18.7022655 9.28347651,24.9792212 5.84773497,31.2636106" id="Fill-6" fill="#FFFFFF"></path>
                <path d="M4.9463597e-05,45.5733451 C4.9463597e-05,45.4712566 0.0876000325,45.3840354 0.189000409,45.3840354 L0.508535253,45.3840354 C0.610430266,45.3840354 0.697486199,45.4712566 0.697486199,45.5733451 L0.697486199,55.3892035 C0.697486199,55.5051681 0.596085822,55.5775221 0.49419081,55.5775221 L0.189000409,55.5775221 C0.0876000325,55.5775221 4.9463597e-05,55.4907965 4.9463597e-05,55.3892035 L4.9463597e-05,45.5733451 Z" id="Fill-8" fill="#FFFFFF"></path>
                <path d="M11.0472,45.427646 C11.0472,45.3116814 11.149095,45.2383363 11.2653345,45.2383363 L11.5121579,45.2383363 L18.489493,54.3400708 L18.5038375,54.3400708 L18.5038375,45.5733451 C18.5038375,45.4712566 18.5908934,45.3840354 18.6927884,45.3840354 L18.9836344,45.3840354 C19.0850347,45.3840354 19.1725853,45.4712566 19.1725853,45.5733451 L19.1725853,55.5344071 C19.1725853,55.6657345 19.0558512,55.7232212 18.9401064,55.7232212 L18.7506608,55.7232212 C18.7363164,55.7232212 18.6200769,55.6796106 11.7164425,46.5342655 L11.7011088,46.5342655 L11.7011088,55.3892035 C11.7011088,55.4907965 11.6140529,55.5775221 11.5121579,55.5775221 L11.236151,55.5775221 C11.1347506,55.5775221 11.0472,55.4907965 11.0472,55.3892035 L11.0472,45.427646 Z" id="Fill-10" fill="#FFFFFF"></path>
                <path d="M31.0630902,46.0103434 L28.2871931,46.0103434 C28.1417701,46.0103434 28.0977475,45.9226265 28.0977475,45.7917947 L28.0977475,45.573246 C28.0977475,45.4572814 28.1852981,45.3839363 28.2871931,45.3839363 L34.5369187,45.3839363 C34.6536528,45.3839363 34.7258697,45.4711575 34.7258697,45.573246 L34.7258697,45.8210336 C34.7258697,45.9226265 34.6536528,46.0103434 34.5369187,46.0103434 L31.7461825,46.0103434 L31.7461825,55.3891044 C31.7461825,55.4906973 31.6591266,55.5779186 31.5137036,55.5779186 L31.2520412,55.5779186 C31.1501462,55.5779186 31.0630902,55.4906973 31.0630902,55.3891044 L31.0630902,46.0103434 Z" id="Fill-12" fill="#FFFFFF"></path>
                <path d="M43.6511803,45.5733451 C43.6511803,45.4712566 43.7382362,45.3840354 43.8401312,45.3840354 L49.6689216,45.3840354 C49.7708166,45.3840354 49.8578726,45.4712566 49.8578726,45.5733451 L49.8578726,45.8211327 C49.8578726,45.9227257 49.7708166,46.0104425 49.6689216,46.0104425 L44.348617,46.0104425 L44.348617,50.0290619 L48.9566458,50.0290619 C49.0585408,50.0290619 49.1451021,50.1172743 49.1451021,50.2188673 L49.1451021,50.4666549 C49.1451021,50.5682478 49.0585408,50.655469 48.9566458,50.655469 L44.348617,50.655469 L44.348617,54.9664779 L49.6689216,54.9664779 C49.7708166,54.9664779 49.8578726,55.0536991 49.8578726,55.1557876 L49.8578726,55.3892035 C49.8578726,55.4907965 49.7708166,55.5775221 49.6689216,55.5775221 L43.8401312,55.5775221 C43.7382362,55.5775221 43.6511803,55.4907965 43.6511803,55.3892035 L43.6511803,45.5733451 Z" id="Fill-14" fill="#FFFFFF"></path>
                <path d="M63.3762245,51.0343363 C64.7715926,51.0343363 65.9488263,49.9420885 65.9488263,48.5004602 C65.9488263,47.1173097 64.7715926,46.0538053 63.3618801,46.0538053 L60.3089868,46.0538053 L60.3089868,51.0343363 L63.3762245,51.0343363 Z M59.61155,45.5730973 C59.61155,45.4710088 59.6842615,45.3842832 59.800501,45.3842832 L63.405408,45.3842832 C65.178678,45.3842832 66.646263,46.723823 66.646263,48.5004602 C66.646263,49.9713274 65.6292914,51.1507965 64.2482677,51.5437876 L66.3707507,55.3161062 C66.4429676,55.4325664 66.4142787,55.5777699 66.2688557,55.5777699 L65.8182424,55.5777699 C65.7163473,55.5777699 65.6579803,55.5341593 65.6144523,55.4469381 L63.507303,51.6310088 C63.3183521,51.6458761 63.15809,51.6458761 62.9691391,51.6458761 L60.295137,51.6458761 L60.295137,55.3889558 C60.295137,55.4905487 60.2075864,55.5777699 60.0621634,55.5777699 L59.800501,55.5777699 C59.698606,55.5777699 59.61155,55.4905487 59.61155,55.3889558 L59.61155,45.5730973 Z" id="Fill-16" fill="#FFFFFF"></path>
                <path d="M82.0550147,52.1992354 L79.5694689,46.3306336 L79.5402854,46.3306336 L77.0112116,52.1992354 L82.0550147,52.1992354 Z M74.8743842,55.4036248 L79.3508398,45.2676248 C79.380518,45.2091469 79.4527348,45.1655363 79.5259409,45.1655363 L79.5694689,45.1655363 C79.6416858,45.1655363 79.7148919,45.179908 79.7579252,45.2676248 L84.1913475,55.4036248 C84.2205311,55.490846 84.2205311,55.5775717 84.0607636,55.5775717 L83.6828617,55.5775717 C83.5809667,55.5775717 83.5082552,55.5052177 83.4795664,55.4472354 L82.3018381,52.7671646 L76.7490545,52.7671646 L75.58666,55.4472354 C75.5574765,55.5052177 75.484765,55.5775717 75.3833646,55.5775717 L74.9757845,55.5775717 C74.8743842,55.5775717 74.8308562,55.5195894 74.8743842,55.4036248 L74.8743842,55.4036248 Z" id="Fill-18" fill="#FFFFFF"></path>
                <path d="M97.5645733,45.2384354 C99.0469973,45.2384354 100.151519,45.733515 101.096769,46.5928425 C101.168986,46.6651965 101.183825,46.7816566 101.111113,46.8550018 L100.878634,47.1027894 C100.791084,47.1900106 100.718867,47.1751434 100.631316,47.0874265 C99.8028011,46.3450549 98.7561513,45.8935858 97.5645733,45.8935858 C95.0206604,45.8935858 93.0292559,47.9759929 93.0292559,50.4950018 C93.0292559,53.0001345 95.0206604,55.0681699 97.5645733,55.0681699 C98.8145184,55.0681699 99.7592731,54.5735858 100.631316,53.8450903 C100.718867,53.7722407 100.805923,53.7722407 100.863795,53.8158513 L101.111113,54.0636389 C101.183825,54.1216212 101.183825,54.2380814 101.111113,54.3114265 C100.122831,55.2723469 98.8580464,55.7233204 97.5645733,55.7233204 C94.657103,55.7233204 92.3026357,53.4228602 92.3026357,50.4950018 C92.3026357,47.5830018 94.657103,45.2384354 97.5645733,45.2384354" id="Fill-20" fill="#FFFFFF"></path>
                <path d="M112.274652,46.0103434 L109.498755,46.0103434 C109.353332,46.0103434 109.309804,45.9226265 109.309804,45.7917947 L109.309804,45.573246 C109.309804,45.4572814 109.39686,45.3839363 109.498755,45.3839363 L115.74848,45.3839363 C115.865214,45.3839363 115.937431,45.4711575 115.937431,45.573246 L115.937431,45.8210336 C115.937431,45.9226265 115.865214,46.0103434 115.74848,46.0103434 L112.958239,46.0103434 L112.958239,55.3891044 C112.958239,55.4906973 112.871183,55.5779186 112.725265,55.5779186 L112.463603,55.5779186 C112.362202,55.5779186 112.274652,55.4906973 112.274652,55.3891044 L112.274652,46.0103434 Z" id="Fill-22" fill="#FFFFFF"></path>
                <path d="M124.862791,45.5733451 C124.862791,45.4712566 124.950342,45.3840354 125.052237,45.3840354 L125.371772,45.3840354 C125.473172,45.3840354 125.560723,45.4712566 125.560723,45.5733451 L125.560723,55.3892035 C125.560723,55.5051681 125.458828,55.5775221 125.356933,55.5775221 L125.052237,55.5775221 C124.950342,55.5775221 124.862791,55.4907965 124.862791,55.3892035 L124.862791,45.5733451 Z" id="Fill-24" fill="#FFFFFF"></path>
                <path d="M134.456949,45.5733451 C134.398582,45.4573805 134.442109,45.3840354 134.572693,45.3840354 L134.965434,45.3840354 C135.05249,45.3840354 135.110363,45.4420177 135.125696,45.4856283 L139.049644,54.5293805 L139.078827,54.5293805 L143.046797,45.4856283 C143.061636,45.4420177 143.120003,45.3840354 143.206564,45.3840354 L143.584466,45.3840354 C143.715545,45.3840354 143.773417,45.4712566 143.715545,45.5877168 L139.252939,55.592885 C139.22425,55.6657345 139.165883,55.7232212 139.078827,55.7232212 L139.006116,55.7232212 C138.91906,55.7232212 138.860198,55.6364956 138.846348,55.592885 L134.456949,45.5733451 Z" id="Fill-26" fill="#FFFFFF"></path>
                <path d="M152.640658,45.5733451 C152.640658,45.4712566 152.728208,45.3840354 152.829609,45.3840354 L158.658894,45.3840354 C158.760294,45.3840354 158.84735,45.4712566 158.84735,45.5733451 L158.84735,45.8211327 C158.84735,45.9227257 158.760294,46.0104425 158.658894,46.0104425 L153.338094,46.0104425 L153.338094,50.0290619 L157.946123,50.0290619 C158.048018,50.0290619 158.135074,50.1172743 158.135074,50.2188673 L158.135074,50.4666549 C158.135074,50.5682478 158.048018,50.655469 157.946123,50.655469 L153.338094,50.655469 L153.338094,54.9664779 L158.658894,54.9664779 C158.760294,54.9664779 158.84735,55.0536991 158.84735,55.1557876 L158.84735,55.3892035 C158.84735,55.4907965 158.760294,55.5775221 158.658894,55.5775221 L152.829609,55.5775221 C152.728208,55.5775221 152.640658,55.4907965 152.640658,55.3892035 L152.640658,45.5733451 Z" id="Fill-28" fill="#FFFFFF"></path>
            </g>
        </g>
    </g>
</svg>